<svg aria-hidden="true" style="position: absolute; width: 0; height: 0; overflow: hidden;" version="1.1"
    xmlns="http://www.w3.org/2000/svg" xmlns:xlink="http://www.w3.org/1999/xlink">
    <defs>

        <symbol id="icon-fb-white" viewBox="0 0 32 32">
            <path fill="#fbfbfb" style="fill: var(--color1, #fbfbfb)"
                d="M32 16.040c0-8.854-7.168-16.040-16-16.040s-16 7.186-16 16.040c0 7.763 5.504 14.228 12.8 15.719v-10.907h-3.2v-4.812h3.2v-4.010c0-3.096 2.512-5.614 5.6-5.614h4v4.812h-3.2c-0.88 0-1.6 0.722-1.6 1.604v3.208h4.8v4.812h-4.8v11.148c8.080-0.802 14.4-7.635 14.4-15.96z">
            </path>
        </symbol>
        <symbol id="icon-youtube-white" viewBox="0 0 32 32">
            <path fill="#fbfbfb" style="fill: var(--color1, #fbfbfb)"
                d="M18.672 15.722l-3.743-1.747c-0.327-0.152-0.595 0.018-0.595 0.38v3.29c0 0.362 0.268 0.532 0.595 0.38l3.742-1.747c0.328-0.153 0.328-0.403 0.002-0.557zM16 0c-8.837 0-16 7.163-16 16s7.163 16 16 16c8.837 0 16-7.163 16-16s-7.163-16-16-16zM16 22.5c-8.19 0-8.333-0.738-8.333-6.5s0.143-6.5 8.333-6.5c8.19 0 8.333 0.738 8.333 6.5s-0.143 6.5-8.333 6.5z">
            </path>
        </symbol>
        <symbol id="icon-ins-white" viewBox="0 0 32 32">
            <path fill="#fbfbfb" style="fill: var(--color1, #fbfbfb)"
                d="M21.179 4h-11.692c-1.808 0.002-3.542 0.721-4.821 2s-1.998 3.012-2 4.821v11.692c0.002 1.808 0.721 3.542 2 4.821s3.012 1.998 4.821 2h11.692c1.808-0.002 3.542-0.721 4.821-2s1.998-3.012 2-4.821v-11.692c-0.002-1.808-0.721-3.542-2-4.821s-3.012-1.998-4.821-2zM15.333 22.513c-1.156 0-2.287-0.343-3.248-0.985s-1.711-1.555-2.153-2.624c-0.442-1.068-0.558-2.244-0.333-3.378s0.782-2.176 1.6-2.993c0.818-0.818 1.859-1.374 2.993-1.6s2.309-0.11 3.378 0.333 1.981 1.192 2.624 2.153c0.642 0.961 0.985 2.092 0.985 3.248-0.002 1.55-0.618 3.036-1.714 4.132s-2.582 1.712-4.132 1.714zM22.641 10.82c-0.289 0-0.572-0.086-0.812-0.246s-0.428-0.389-0.538-0.656c-0.111-0.267-0.14-0.561-0.083-0.844s0.196-0.544 0.4-0.748c0.204-0.204 0.465-0.344 0.748-0.4s0.577-0.027 0.844 0.083c0.267 0.111 0.495 0.298 0.656 0.538s0.246 0.523 0.246 0.812c0 0.388-0.154 0.759-0.428 1.033s-0.646 0.428-1.033 0.428zM19.231 16.667c0 0.771-0.229 1.524-0.657 2.165s-1.037 1.14-1.749 1.435c-0.712 0.295-1.496 0.372-2.252 0.222s-1.45-0.522-1.995-1.067-0.916-1.239-1.067-1.995c-0.15-0.756-0.073-1.54 0.222-2.252s0.795-1.321 1.435-1.749c0.641-0.428 1.395-0.657 2.165-0.657 1.034 0 2.025 0.411 2.756 1.142s1.142 1.722 1.142 2.756z">
            </path>
        </symbol>
        <symbol id="icon-fb-black" viewBox="0 0 32 32">
            <path d="M32 16.040c0-8.854-7.168-16.040-16-16.040s-16 7.186-16 16.040c0 7.763 5.504 14.228 12.8 15.719v-10.907h-3.2v-4.812h3.2v-4.010c0-3.096 2.512-5.614 5.6-5.614h4v4.812h-3.2c-0.88 0-1.6 0.722-1.6 1.604v3.208h4.8v4.812h-4.8v11.148c8.080-0.802 14.4-7.635 14.4-15.96z"></path>
        </symbol>
        <symbol id="icon-ins-black" viewBox="0 0 32 32">
            <path
                d="M23.385 0h-14.769c-2.284 0.002-4.474 0.911-6.089 2.526s-2.524 3.805-2.526 6.089v14.769c0.002 2.284 0.911 4.474 2.526 6.089s3.805 2.524 6.089 2.526h14.769c2.284-0.003 4.474-0.911 6.089-2.526s2.524-3.805 2.526-6.089v-14.769c-0.003-2.284-0.911-4.474-2.526-6.089s-3.805-2.524-6.089-2.526zM16 23.385c-1.461 0-2.888-0.433-4.103-1.244s-2.161-1.965-2.72-3.314c-0.559-1.349-0.705-2.834-0.42-4.267s0.988-2.748 2.021-3.781c1.033-1.033 2.349-1.736 3.781-2.021s2.917-0.139 4.267 0.42c1.349 0.559 2.503 1.505 3.314 2.72s1.244 2.642 1.244 4.103c-0.002 1.958-0.781 3.835-2.165 5.22s-3.262 2.163-5.22 2.165zM25.231 8.615c-0.365 0-0.722-0.108-1.026-0.311s-0.54-0.491-0.68-0.829c-0.14-0.337-0.176-0.709-0.105-1.067s0.247-0.687 0.505-0.945c0.258-0.258 0.587-0.434 0.945-0.505s0.729-0.035 1.067 0.105c0.337 0.14 0.626 0.376 0.829 0.68s0.311 0.661 0.311 1.026c0 0.49-0.195 0.959-0.541 1.305s-0.816 0.541-1.305 0.541zM20.923 16c0 0.974-0.289 1.926-0.83 2.735s-1.31 1.441-2.209 1.813c-0.9 0.373-1.889 0.47-2.844 0.28s-1.832-0.659-2.521-1.347c-0.688-0.689-1.157-1.566-1.347-2.521s-0.092-1.945 0.28-2.844 1.004-1.668 1.813-2.209c0.81-0.541 1.761-0.83 2.735-0.83 1.306 0 2.558 0.519 3.481 1.442s1.442 2.175 1.442 3.481z">
            </path>
        </symbol>
        <symbol id="icon-youtube-black" viewBox="0 0 32 32">
            <path d="M18.672 15.722l-3.743-1.747c-0.327-0.152-0.595 0.018-0.595 0.38v3.29c0 0.362 0.268 0.532 0.595 0.38l3.742-1.747c0.328-0.153 0.328-0.403 0.002-0.557zM16 0c-8.837 0-16 7.163-16 16s7.163 16 16 16c8.837 0 16-7.163 16-16s-7.163-16-16-16zM16 22.5c-8.19 0-8.333-0.738-8.333-6.5s0.143-6.5 8.333-6.5c8.19 0 8.333 0.738 8.333 6.5s-0.143 6.5-8.333 6.5z"></path>
        </symbol>
        <symbol id="icon-burger" viewBox="0 0 32 32">
            <path stroke-linejoin="round" stroke-linecap="round" stroke-miterlimit="4" stroke-width="2.8571"
                d="M4 20h24M4 12h24"></path>
        </symbol>
        <symbol id="icon-close" viewBox="0 0 32 32">
            <path fill="#055545" style="fill: var(--color2, #055545)"
                d="M24.533 8.385l-1.985-1.985-6.549 6.549-6.549-6.549-1.985 1.985 6.549 6.549-6.549 6.549 1.985 1.985 6.549-6.549 6.549 6.549 1.985-1.985-6.549-6.549 6.549-6.549z">
            </path>
        </symbol>
        <symbol id="icon-favicon" viewBox="0 0 32 32">
            <path fill="#1b414b" style="fill: var(--color3, #1b414b)"
                d="M8 0h16c4.418 0 8 3.582 8 8v16c0 4.418-3.582 8-8 8h-16c-4.418 0-8-3.582-8-8v-16c0-4.418 3.582-8 8-8z">
            </path>
            <path fill="#fbfbfb" style="fill: var(--color1, #fbfbfb)"
                d="M7.369 10.818h1.745l2.66 4.628h0.109l2.66-4.628h1.745l-3.694 6.185v3.997h-1.531v-3.997l-3.694-6.185zM17.14 21h-1.631l3.664-10.182h1.775l3.664 10.182h-1.631l-2.878-8.332h-0.080l-2.884 8.332zM17.413 17.013h5.29v1.293h-5.29v-1.293z">
            </path>
        </symbol>

    </defs>
</svg>